# xmcd
#
# Track frame offsets: 
#        150
#        20213
#        37341
#        64907
#        83590
#        109102
#        134183
#        158677
#
# Disc length: 2374 seconds
#
# Revision: 1
# Processed by: cddbd v1.5.2PL0 Copyright (c) Steve Scherf et al.
# Submitted via: ExactAudioCopy v0.99pb4
#
DISCID=71094408
DTITLE=Stephanie Mills - Sweet Sensation
DYEAR=1980
DGENRE=Funk
TTITLE0=Sweet Sensation
TTITLE1=Try My Love
TTITLE2=I Just Wanna Say
TTITLE3=Wish That You Were Mine
TTITLE4=D-A-N-C-I-N'
TTITLE5=Still Mine
TTITLE6=Never Knew Love Like This Before
TTITLE7=Mixture Of Love
EXTD=
EXTT0=
EXTT1=
EXTT2=
EXTT3=
EXTT4=
EXTT5=
EXTT6=
EXTT7=
PLAYORDER=
